<svg width="580" height="800" viewBox="0 0 580 800" fill="none" xmlns="http://www.w3.org/2000/svg">
<path d="M552.069 0H27.9312C12.6905 0 0.345215 12.3453 0.345215 27.5859V772.414C0.345215 787.655 12.6905 800 27.9312 800H552.069C567.309 800 579.655 787.655 579.655 772.414V27.5859C579.655 12.3453 567.311 0 552.069 0Z" fill="#E6EEF4"/>
<path d="M41.7234 220.689C41.7234 228.306 47.8984 234.483 55.5171 234.483C63.1343 234.483 69.3109 228.308 69.3109 220.689V55.1719C69.3109 47.5547 63.1359 41.3782 55.5171 41.3782C47.9 41.3782 41.7234 47.5532 41.7234 55.1719V220.689Z" fill="black"/>
<path d="M96.8967 96.5516V179.311C96.8967 209.688 121.692 234.483 152.069 234.483C182.445 234.483 207.24 209.688 207.24 179.311V96.5516C207.24 66.1751 182.445 41.3798 152.069 41.3798C121.692 41.3798 96.8967 66.1751 96.8967 96.5516ZM179.655 96.5516V179.311C179.655 194.452 167.209 206.897 152.069 206.897C136.928 206.897 124.483 194.452 124.483 179.311V96.5516C124.483 81.411 136.928 68.9657 152.069 68.9657C167.209 68.9657 179.655 81.411 179.655 96.5516Z" fill="black"/>
<path d="M331.38 565.517C331.38 565.517 400.634 634.772 455.517 551.724C484.083 508.495 464.717 466.386 434.262 437.283L303.159 308.166C295.78 301.877 284.442 301.877 277.048 308.166L144.042 437.283C117.876 464.663 95.5874 508.386 124.483 551.724C179.655 634.483 248.62 565.517 248.62 565.517C248.62 600.869 238.551 646.303 235.614 658.772C235.214 660.51 236.551 662.069 238.331 662.069H341.683C343.462 662.069 344.786 660.511 344.386 658.786C341.462 646.277 331.38 600.649 331.38 565.517Z" fill="black"/>
<path d="M69.3109 55.1719C69.3109 47.5547 63.1359 41.3782 55.5171 41.3782C47.9 41.3782 41.7234 47.5532 41.7234 55.1719V68.9657C41.7234 76.5829 47.8984 82.7594 55.5171 82.7594C63.1343 82.7594 69.3109 76.5844 69.3109 68.9657V55.1719Z" fill="black"/>
</svg>
