<svg width="580" height="800" viewBox="0 0 580 800" fill="none" xmlns="http://www.w3.org/2000/svg">
<path d="M552.069 0H27.9313C12.6906 0 0.345337 12.3453 0.345337 27.5859V772.414C0.345337 787.655 12.6906 800 27.9313 800H552.069C567.309 800 579.655 787.655 579.655 772.414V27.5859C579.655 12.3453 567.311 0 552.069 0Z" fill="#E6EEF4"/>
<path d="M290 275.863L124.483 482.759L290 689.655L455.517 482.759L290 275.863Z" fill="#D71E00"/>
<path d="M41.7234 220.689C41.7234 228.306 47.8985 234.483 55.5172 234.483C63.1344 234.483 69.311 228.308 69.311 220.689V55.1719C69.311 47.5547 63.136 41.3782 55.5172 41.3782C47.9 41.3782 41.7234 47.5532 41.7234 55.1719V220.689Z" fill="#D71E00"/>
<path d="M96.8969 96.5516V179.311C96.8969 209.688 121.692 234.483 152.069 234.483C182.445 234.483 207.241 209.688 207.241 179.311V96.5516C207.241 66.1751 182.445 41.3798 152.069 41.3798C121.692 41.3798 96.8969 66.1751 96.8969 96.5516ZM179.655 96.5516V179.311C179.655 194.452 167.209 206.897 152.069 206.897C136.928 206.897 124.483 194.452 124.483 179.311V96.5516C124.483 81.411 136.928 68.9657 152.069 68.9657C167.209 68.9657 179.655 81.411 179.655 96.5516Z" fill="#D71E00"/>
</svg>
