<svg width="580" height="800" viewBox="0 0 580 800" fill="none" xmlns="http://www.w3.org/2000/svg">
<path d="M552.069 0H27.9313C12.6906 0 0.345337 12.3453 0.345337 27.5859V772.414C0.345337 787.655 12.6906 800 27.9313 800H552.069C567.309 800 579.655 787.655 579.655 772.414V27.5859C579.655 12.3453 567.311 0 552.069 0Z" fill="#E6EEF4"/>
<path d="M331.38 579.311C331.38 613.545 340.814 647.78 344.083 658.58C344.62 660.359 343.269 662.069 341.42 662.069H238.566C236.717 662.069 235.38 660.358 235.903 658.592C239.144 647.737 248.62 613.13 248.62 579.309C234.992 589.186 219.241 594.275 201.875 594.275C151.447 594.275 107.695 551.93 110.855 500.869C112.62 472.152 130.909 447.517 155.269 432.234C179.723 416.883 202.4 415.655 222.675 420.58C209.709 405.228 201.875 385.42 201.875 363.766C201.875 309.337 251.213 266.428 307.598 277.337C342.895 284.152 370.936 313.158 376.867 348.606C381.473 376.109 373.267 401.709 357.336 420.578C377.75 415.627 400.605 416.909 425.253 432.55C449.502 447.944 467.722 472.522 469.391 501.184C472.342 552.108 428.453 594.273 378.136 594.273C361.006 594.277 344.759 588.98 331.38 579.311Z" fill="black"/>
<path d="M123.775 50.811C119.583 38.2359 101.797 38.2359 97.6047 50.811L42.4313 216.328C40.0219 223.555 43.9281 231.366 51.1547 233.775C58.3813 236.184 66.1922 232.278 68.6016 225.052L123.773 59.5344H97.6031L152.775 225.052C155.184 232.278 162.995 236.184 170.222 233.775C177.448 231.366 181.355 223.555 178.945 216.328L123.775 50.811Z" fill="black"/>
<path d="M138.277 179.311C145.894 179.311 152.07 173.136 152.07 165.517C152.07 157.9 145.895 151.723 138.277 151.723H83.1047C75.4875 151.723 69.311 157.898 69.311 165.517C69.311 173.134 75.486 179.311 83.1047 179.311H138.277Z" fill="black"/>
</svg>
