<svg width="580" height="800" viewBox="0 0 580 800" fill="none" xmlns="http://www.w3.org/2000/svg">
<path d="M552.069 0H27.9312C12.6906 0 0.345306 12.3453 0.345306 27.5859V772.414C0.345306 787.655 12.6906 800 27.9312 800H552.069C567.309 800 579.655 787.655 579.655 772.414V27.5859C579.655 12.3453 567.311 0 552.069 0Z" fill="#E6EEF4"/>
<path d="M290 275.862L124.483 482.759L290 689.655L455.517 482.759L290 275.862Z" fill="#D71E00"/>
<path d="M123.775 50.811C119.583 38.2359 101.797 38.2359 97.6047 50.811L42.4312 216.328C40.0219 223.555 43.9281 231.366 51.1547 233.775C58.3812 236.184 66.1922 232.278 68.6015 225.052L123.773 59.5344H97.6031L152.775 225.052C155.184 232.278 162.995 236.184 170.222 233.775C177.448 231.366 181.355 223.555 178.945 216.328L123.775 50.811Z" fill="#D71E00"/>
<path d="M138.277 179.311C145.894 179.311 152.07 173.136 152.07 165.517C152.07 157.9 145.895 151.723 138.277 151.723H83.1047C75.4875 151.723 69.3109 157.898 69.3109 165.517C69.3109 173.134 75.4859 179.311 83.1047 179.311H138.277Z" fill="#D71E00"/>
</svg>
