<svg width="580" height="800" viewBox="0 0 580 800" fill="none" xmlns="http://www.w3.org/2000/svg">
<path d="M552.069 0H27.9313C12.6906 0 0.345337 12.3453 0.345337 27.5859V772.414C0.345337 787.655 12.6906 800 27.9313 800H552.069C567.309 800 579.655 787.655 579.655 772.414V27.5859C579.655 12.3453 567.311 0 552.069 0Z" fill="#E6EEF4"/>
<path d="M290 372.414C304.855 334.58 336.289 303.448 375.752 303.448C408.966 303.448 438.566 319.062 458.511 344.828C483.531 377.159 501.214 449.131 446.456 503.891C418.677 531.669 290 662.069 290 662.069C290 662.069 161.323 531.669 133.545 503.889C78.786 449.13 96.4688 377.158 121.491 344.827C141.436 319.061 171.036 303.447 204.25 303.447C243.711 303.448 275.145 334.58 290 372.414Z" fill="#D71E00"/>
<path d="M124.483 220.689L138.277 206.895H55.5172C47.9 206.895 41.7234 213.07 41.7234 220.689C41.7234 228.308 47.8985 234.483 55.5172 234.483H138.277C145.894 234.483 152.07 228.308 152.07 220.689V206.895C152.07 199.278 145.895 193.102 138.277 193.102C130.658 193.102 124.483 199.277 124.483 206.895V220.689Z" fill="#D71E00"/>
<path d="M133.458 127.319L137.106 123.009L138.056 121.748C160.284 88.4062 137.878 42.0453 97.8157 41.3828L96.8969 41.3812C66.4235 41.3812 41.725 66.0812 41.725 96.5531C41.725 104.17 47.9001 110.347 55.5188 110.347C63.136 110.347 69.3126 104.172 69.3126 96.5531C69.3126 81.3156 81.661 68.9672 96.8985 68.9672H97.5876C115.069 69.2594 125.503 90.8468 115.105 106.447L126.581 114.098L116.055 105.186L112.4 109.503C85.2407 141.633 62.0126 176.88 43.1844 214.522C39.7766 221.334 42.5376 229.62 49.3501 233.028C56.1626 236.436 64.4485 233.675 67.8563 226.862C85.7016 191.177 107.72 157.766 133.458 127.319Z" fill="#D71E00"/>
</svg>
