<svg width="580" height="800" viewBox="0 0 580 800" fill="none" xmlns="http://www.w3.org/2000/svg">
<path d="M552.069 0H27.9312C12.6906 0 0.345306 12.3453 0.345306 27.5859V772.414C0.345306 787.655 12.6906 800 27.9312 800H552.069C567.309 800 579.655 787.655 579.655 772.414V27.5859C579.655 12.3453 567.311 0 552.069 0Z" fill="#E6EEF4"/>
<path d="M331.38 579.311C331.38 613.545 340.814 647.78 344.083 658.58C344.62 660.359 343.269 662.069 341.42 662.069H238.566C236.717 662.069 235.38 660.358 235.903 658.592C239.144 647.737 248.62 613.13 248.62 579.309C234.98 589.186 219.241 594.275 201.875 594.275C151.447 594.275 107.695 551.93 110.855 500.869C112.62 472.152 130.909 447.517 155.269 432.234C179.723 416.883 202.4 415.655 222.675 420.58C209.709 405.228 201.875 385.42 201.875 363.766C201.875 309.337 251.213 266.428 307.598 277.337C342.895 284.152 370.936 313.158 376.867 348.606C381.473 376.109 373.267 401.709 357.336 420.578C377.75 415.627 400.605 416.909 425.253 432.55C449.502 447.944 467.722 472.522 469.391 501.184C472.342 552.108 428.453 594.273 378.136 594.273C361.006 594.277 344.759 588.98 331.38 579.311Z" fill="black"/>
<path d="M124.483 220.689L138.277 206.895H55.5172C47.9 206.895 41.7234 213.07 41.7234 220.689C41.7234 228.308 47.8984 234.483 55.5172 234.483H138.277C145.894 234.483 152.07 228.308 152.07 220.689V206.895C152.07 199.278 145.895 193.102 138.277 193.102C130.658 193.102 124.483 199.277 124.483 206.895V220.689Z" fill="black"/>
<path d="M133.458 127.319L137.106 123.009L138.056 121.748C160.284 88.4062 137.878 42.0453 97.8156 41.3828L96.8969 41.3812C66.4234 41.3812 41.725 66.0812 41.725 96.5531C41.725 104.17 47.9 110.347 55.5187 110.347C63.1359 110.347 69.3125 104.172 69.3125 96.5531C69.3125 81.3156 81.6609 68.9672 96.8984 68.9672H97.5875C115.069 69.2594 125.503 90.8468 115.105 106.447L126.581 114.098L116.055 105.186L112.4 109.503C85.2406 141.633 62.0125 176.88 43.1844 214.522C39.7766 221.334 42.5375 229.62 49.35 233.028C56.1625 236.436 64.4484 233.675 67.8562 226.862C85.7016 191.177 107.72 157.766 133.458 127.319Z" fill="black"/>
</svg>
