<svg width="580" height="800" viewBox="0 0 580 800" fill="none" xmlns="http://www.w3.org/2000/svg">
<path d="M552.069 0H27.9312C12.6906 0 0.345314 12.3453 0.345314 27.5859V772.414C0.345314 787.655 12.6906 800 27.9312 800H552.069C567.309 800 579.655 787.655 579.655 772.414V27.5859C579.655 12.3453 567.311 0 552.069 0Z" fill="#E6EEF4"/>
<path d="M290 372.414C304.855 334.58 336.289 303.448 375.752 303.448C408.966 303.448 438.566 319.063 458.511 344.828C483.531 377.159 501.214 449.131 446.456 503.891C418.677 531.669 290 662.069 290 662.069C290 662.069 161.323 531.669 133.545 503.889C78.7859 449.13 96.4688 377.158 121.491 344.827C141.436 319.061 171.036 303.447 204.25 303.447C243.711 303.448 275.145 334.58 290 372.414Z" fill="#D71E00"/>
<path d="M83.1047 151.723C113.578 151.723 138.277 127.023 138.277 96.5516C138.277 66.0797 113.577 41.3797 83.1047 41.3797C76.7641 41.3797 70.5672 42.4516 64.7016 44.5313C56.4953 47.4203 49.3484 52.375 42.5109 59.2125C37.125 64.5984 37.125 73.3328 42.5109 78.7188C47.8969 84.1047 56.6312 84.1047 62.0172 78.7188C66.1609 74.575 70.0062 71.9094 73.8922 70.5406C76.8344 69.4969 79.9141 68.9656 83.1047 68.9656C98.3422 68.9656 110.691 81.3141 110.691 96.5516C110.691 111.789 98.3422 124.138 83.1047 124.138H69.3531C61.7359 124.138 55.5594 130.313 55.5594 137.931C55.5594 145.548 61.7344 151.725 69.3531 151.725L83.1047 151.723Z" fill="#D71E00"/>
<path d="M83.1078 234.48C113.581 234.48 138.28 209.78 138.28 179.308C138.28 148.836 113.58 124.136 83.1078 124.136H69.3141C61.6969 124.136 55.5203 130.311 55.5203 137.93C55.5203 145.547 61.6953 151.723 69.3141 151.723H83.1078C98.3453 151.723 110.694 164.072 110.694 179.309C110.694 194.547 98.3453 206.895 83.1078 206.895C75.5953 206.895 68.3484 203.484 62.0609 197.197C56.675 191.811 47.9406 191.811 42.5547 197.197C37.1688 202.583 37.1688 211.317 42.5547 216.703C53.7266 227.875 67.7625 234.48 83.1078 234.48Z" fill="#D71E00"/>
</svg>
