<svg width="580" height="800" viewBox="0 0 580 800" fill="none" xmlns="http://www.w3.org/2000/svg">
<path d="M552.069 0H27.9312C12.6905 0 0.345215 12.3453 0.345215 27.5859V772.414C0.345215 787.655 12.6905 800 27.9312 800H552.069C567.309 800 579.655 787.655 579.655 772.414V27.5859C579.655 12.3453 567.311 0 552.069 0Z" fill="#E6EEF4"/>
<path d="M331.378 579.311C331.378 613.545 340.826 647.78 344.081 658.58C344.619 660.359 343.267 662.069 341.419 662.069H238.564C236.716 662.069 235.378 660.358 235.902 658.592C239.142 647.737 248.619 613.13 248.619 579.309C234.991 589.186 219.239 594.275 201.873 594.275C151.445 594.275 107.694 551.93 110.853 500.869C112.619 472.151 130.908 447.517 155.267 432.234C179.722 416.883 202.398 415.655 222.673 420.58C209.708 405.228 201.873 385.42 201.873 363.766C201.873 309.337 251.211 266.428 307.597 277.337C342.894 284.151 370.948 313.158 376.866 348.606C381.472 376.109 373.266 401.709 357.334 420.578C377.748 415.626 400.603 416.909 425.251 432.55C449.5 447.944 467.72 472.522 469.389 501.184C472.341 552.108 428.451 594.273 378.134 594.273C361.006 594.276 344.758 588.98 331.378 579.311Z" fill="black"/>
<path d="M83.1046 151.723C113.578 151.723 138.277 127.023 138.277 96.5515C138.277 66.0796 113.577 41.3796 83.1046 41.3796C76.764 41.3796 70.5671 42.4515 64.7015 44.5312C56.4953 47.4203 49.3484 52.375 42.5109 59.2125C37.125 64.5984 37.125 73.3328 42.5109 78.7187C47.8968 84.1046 56.6312 84.1046 62.0171 78.7187C66.1609 74.575 70.0062 71.9093 73.8921 70.5406C76.8343 69.4968 79.914 68.9656 83.1046 68.9656C98.3421 68.9656 110.691 81.314 110.691 96.5515C110.691 111.789 98.3421 124.137 83.1046 124.137H69.3531C61.7359 124.137 55.5593 130.312 55.5593 137.931C55.5593 145.548 61.7343 151.725 69.3531 151.725L83.1046 151.723Z" fill="black"/>
<path d="M83.1077 234.48C113.581 234.48 138.28 209.78 138.28 179.308C138.28 148.836 113.58 124.136 83.1077 124.136H69.314C61.6968 124.136 55.5202 130.311 55.5202 137.93C55.5202 145.547 61.6952 151.723 69.314 151.723H83.1077C98.3452 151.723 110.694 164.072 110.694 179.309C110.694 194.547 98.3452 206.895 83.1077 206.895C75.5952 206.895 68.3483 203.484 62.0608 197.197C56.6749 191.811 47.9405 191.811 42.5546 197.197C37.1687 202.583 37.1687 211.317 42.5546 216.703C53.7265 227.875 67.7624 234.48 83.1077 234.48Z" fill="black"/>
</svg>
