<svg width="580" height="800" viewBox="0 0 580 800" fill="none" xmlns="http://www.w3.org/2000/svg">
<path d="M552.069 0H27.9313C12.6906 0 0.345337 12.3453 0.345337 27.5859V772.414C0.345337 787.655 12.6906 800 27.9313 800H552.069C567.309 800 579.655 787.655 579.655 772.414V27.5859C579.655 12.3453 567.311 0 552.069 0Z" fill="#E6EEF4"/>
<path d="M290 275.862L124.483 482.759L290 689.655L455.517 482.759L290 275.862Z" fill="#D71E00"/>
<path d="M83.1048 151.723C113.578 151.723 138.277 127.023 138.277 96.5515C138.277 66.0796 113.577 41.3796 83.1048 41.3796C76.7641 41.3796 70.5673 42.4515 64.7016 44.5312C56.4954 47.4203 49.3485 52.375 42.511 59.2125C37.1251 64.5984 37.1251 73.3328 42.511 78.7187C47.8969 84.1046 56.6313 84.1046 62.0173 78.7187C66.161 74.575 70.0063 71.9093 73.8923 70.5406C76.8344 69.4968 79.9141 68.9656 83.1048 68.9656C98.3423 68.9656 110.691 81.314 110.691 96.5515C110.691 111.789 98.3423 124.137 83.1048 124.137H69.3532C61.736 124.137 55.5594 130.312 55.5594 137.931C55.5594 145.548 61.7345 151.725 69.3532 151.725L83.1048 151.723Z" fill="#D71E00"/>
<path d="M83.108 234.48C113.581 234.48 138.28 209.78 138.28 179.308C138.28 148.836 113.58 124.136 83.108 124.136H69.3142C61.697 124.136 55.5205 130.311 55.5205 137.93C55.5205 145.547 61.6955 151.723 69.3142 151.723H83.108C98.3455 151.723 110.694 164.072 110.694 179.309C110.694 194.547 98.3455 206.895 83.108 206.895C75.5955 206.895 68.3486 203.484 62.0611 197.197C56.6751 191.811 47.9408 191.811 42.5548 197.197C37.1689 202.583 37.1689 211.317 42.5548 216.703C53.7267 227.875 67.7626 234.48 83.108 234.48Z" fill="#D71E00"/>
</svg>
