<svg width="580" height="800" viewBox="0 0 580 800" fill="none" xmlns="http://www.w3.org/2000/svg">
<path d="M552.069 0H27.9312C12.6906 0 0.345314 12.3453 0.345314 27.5859V772.414C0.345314 787.655 12.6906 800 27.9312 800H552.069C567.309 800 579.655 787.655 579.655 772.414V27.5859C579.655 12.3453 567.311 0 552.069 0Z" fill="#E6EEF4"/>
<path d="M331.38 565.517C331.38 565.517 400.634 634.772 455.517 551.723C484.083 508.495 464.717 466.386 434.263 437.283L303.159 308.166C295.78 301.877 284.442 301.877 277.048 308.166L144.042 437.283C117.877 464.663 95.5875 508.386 124.483 551.723C179.655 634.483 248.62 565.517 248.62 565.517C248.62 600.869 238.552 646.303 235.614 658.772C235.214 660.509 236.552 662.069 238.331 662.069H341.683C343.462 662.069 344.786 660.511 344.386 658.786C341.463 646.277 331.38 600.648 331.38 565.517Z" fill="black"/>
<path d="M44.4828 157.241C39.9125 163.334 41.1469 171.98 47.2422 176.552C53.3359 181.122 61.9812 179.888 66.5531 173.792L149.313 63.4469C153.883 57.3531 152.648 48.7078 146.553 44.1359C140.459 39.5656 131.814 40.8 127.242 46.8953L44.4828 157.241Z" fill="black"/>
<path d="M124.483 220.689C124.483 228.306 130.658 234.483 138.277 234.483C145.895 234.483 152.07 228.308 152.07 220.689V55.1719C152.07 47.5547 145.895 41.3782 138.277 41.3782C130.658 41.3782 124.483 47.5532 124.483 55.1719V220.689Z" fill="black"/>
<path d="M55.5172 151.723C47.9 151.723 41.7234 157.898 41.7234 165.517C41.7234 173.134 47.8984 179.311 55.5172 179.311H165.863C173.48 179.311 179.656 173.136 179.656 165.517C179.656 157.9 173.481 151.723 165.863 151.723H55.5172Z" fill="black"/>
<path d="M165.863 234.483C173.48 234.483 179.656 228.308 179.656 220.689C179.656 213.07 173.481 206.895 165.863 206.895H110.691C103.073 206.895 96.8969 213.07 96.8969 220.689C96.8969 228.308 103.072 234.483 110.691 234.483H165.863Z" fill="black"/>
</svg>
