<svg width="580" height="800" viewBox="0 0 580 800" fill="none" xmlns="http://www.w3.org/2000/svg">
<path d="M552.069 0H27.9313C12.6906 0 0.345337 12.3453 0.345337 27.5859V772.414C0.345337 787.655 12.6906 800 27.9313 800H552.069C567.309 800 579.655 787.655 579.655 772.414V27.5859C579.655 12.3453 567.311 0 552.069 0Z" fill="#E6EEF4"/>
<path d="M331.38 579.311C331.38 613.545 340.814 647.78 344.083 658.58C344.62 660.359 343.269 662.069 341.42 662.069H238.566C236.717 662.069 235.38 660.358 235.903 658.592C239.144 647.738 248.62 613.13 248.62 579.309C234.992 589.186 219.241 594.275 201.875 594.275C151.447 594.275 107.695 551.93 110.855 500.869C112.62 472.152 130.909 447.517 155.269 432.234C179.724 416.883 202.4 415.655 222.675 420.58C209.709 405.228 201.875 385.42 201.875 363.766C201.875 309.338 251.213 266.428 307.599 277.338C342.895 284.152 370.936 313.158 376.867 348.606C381.474 376.109 373.267 401.709 357.336 420.578C377.75 415.627 400.605 416.909 425.253 432.55C449.502 447.944 467.722 472.522 469.391 501.184C472.342 552.108 428.453 594.273 378.136 594.273C361.006 594.277 344.759 588.98 331.38 579.311Z" fill="black"/>
<path d="M44.4829 157.241C39.9126 163.334 41.1469 171.98 47.2422 176.552C53.336 181.122 61.9813 179.888 66.5532 173.792L149.313 63.4469C153.883 57.3531 152.648 48.7078 146.553 44.1359C140.459 39.5656 131.814 40.8 127.242 46.8953L44.4829 157.241Z" fill="black"/>
<path d="M124.483 220.689C124.483 228.306 130.658 234.483 138.277 234.483C145.895 234.483 152.07 228.308 152.07 220.689V55.1719C152.07 47.5547 145.895 41.3782 138.277 41.3782C130.658 41.3782 124.483 47.5532 124.483 55.1719V220.689Z" fill="black"/>
<path d="M55.5173 151.723C47.9001 151.723 41.7235 157.898 41.7235 165.517C41.7235 173.134 47.8985 179.311 55.5173 179.311H165.863C173.48 179.311 179.656 173.136 179.656 165.517C179.656 157.9 173.481 151.723 165.863 151.723H55.5173Z" fill="black"/>
<path d="M165.863 234.483C173.48 234.483 179.656 228.308 179.656 220.689C179.656 213.07 173.481 206.895 165.863 206.895H110.691C103.074 206.895 96.897 213.07 96.897 220.689C96.897 228.308 103.072 234.483 110.691 234.483H165.863Z" fill="black"/>
</svg>
