<svg width="580" height="800" viewBox="0 0 580 800" fill="none" xmlns="http://www.w3.org/2000/svg">
<path d="M552.069 0H27.9312C12.6905 0 0.345215 12.3453 0.345215 27.5859V772.414C0.345215 787.655 12.6905 800 27.9312 800H552.069C567.309 800 579.655 787.655 579.655 772.414V27.5859C579.655 12.3453 567.311 0 552.069 0Z" fill="#E6EEF4"/>
<path d="M290 275.863L124.483 482.759L290 689.655L455.517 482.759L290 275.863Z" fill="#D71E00"/>
<path d="M44.4827 157.241C39.9124 163.334 41.1468 171.98 47.2421 176.552C53.3359 181.122 61.9812 179.888 66.5531 173.792L149.312 63.4469C153.883 57.3531 152.648 48.7078 146.553 44.1359C140.459 39.5656 131.814 40.8 127.242 46.8953L44.4827 157.241Z" fill="#D71E00"/>
<path d="M124.483 220.689C124.483 228.306 130.658 234.483 138.276 234.483C145.895 234.483 152.07 228.308 152.07 220.689V55.1719C152.07 47.5547 145.895 41.3782 138.276 41.3782C130.658 41.3782 124.483 47.5532 124.483 55.1719V220.689Z" fill="#D71E00"/>
<path d="M55.5171 151.723C47.9 151.723 41.7234 157.898 41.7234 165.517C41.7234 173.134 47.8984 179.311 55.5171 179.311H165.862C173.48 179.311 179.656 173.136 179.656 165.517C179.656 157.9 173.481 151.723 165.862 151.723H55.5171Z" fill="#D71E00"/>
<path d="M165.862 234.483C173.48 234.483 179.656 228.308 179.656 220.689C179.656 213.07 173.481 206.895 165.862 206.895H110.69C103.073 206.895 96.8967 213.07 96.8967 220.689C96.8967 228.308 103.072 234.483 110.69 234.483H165.862Z" fill="#D71E00"/>
</svg>
