<svg width="580" height="800" viewBox="0 0 580 800" fill="none" xmlns="http://www.w3.org/2000/svg">
<path d="M552.069 0H27.9313C12.6906 0 0.345337 12.3453 0.345337 27.5859V772.414C0.345337 787.655 12.6906 800 27.9313 800H552.069C567.309 800 579.655 787.655 579.655 772.414V27.5859C579.655 12.3453 567.311 0 552.069 0Z" fill="#E6EEF4"/>
<path d="M331.378 579.311C331.378 613.545 340.827 647.78 344.081 658.58C344.619 660.359 343.267 662.069 341.419 662.069H238.564C236.716 662.069 235.378 660.358 235.902 658.592C239.142 647.737 248.619 613.13 248.619 579.309C234.991 589.186 219.239 594.275 201.873 594.275C151.445 594.275 107.694 551.93 110.853 500.869C112.619 472.152 130.908 447.517 155.267 432.234C179.722 416.883 202.398 415.655 222.673 420.58C209.708 405.228 201.873 385.42 201.873 363.766C201.873 309.337 251.211 266.428 307.597 277.337C342.894 284.152 370.948 313.158 376.866 348.606C381.472 376.109 373.266 401.709 357.334 420.578C377.748 415.627 400.603 416.909 425.252 432.55C449.5 447.944 467.72 472.522 469.389 501.184C472.341 552.108 428.452 594.273 378.134 594.273C361.006 594.277 344.758 588.98 331.378 579.311Z" fill="black"/>
<path d="M124.483 68.9656C132.1 68.9656 138.277 62.7906 138.277 55.1719C138.277 47.5531 132.102 41.3781 124.483 41.3781H55.5173C47.9001 41.3781 41.7235 47.5531 41.7235 55.1719C41.7235 62.7906 47.8985 68.9656 55.5173 68.9656H124.483Z" fill="black"/>
<path d="M41.7235 124.137C41.7235 131.755 47.8985 137.931 55.5173 137.931C63.1345 137.931 69.311 131.756 69.311 124.137V55.1719C69.311 47.5547 63.136 41.3781 55.5173 41.3781C47.9001 41.3781 41.7235 47.5531 41.7235 55.1719V124.137Z" fill="black"/>
<path d="M87.7109 209.962C119.025 209.962 144.414 184.573 144.414 153.259C144.414 121.945 119.025 96.5562 87.7109 96.5562C71.2344 96.5562 55.8594 103.639 45.175 115.748C40.1344 121.461 40.6797 130.177 46.3922 135.217C52.1047 140.258 60.8203 139.712 65.8609 134C71.3594 127.769 79.2297 124.144 87.7109 124.144C103.789 124.144 116.828 137.183 116.828 153.261C116.828 169.339 103.789 182.378 87.7109 182.378C79.2297 182.378 71.3688 178.75 65.8609 172.508C60.8203 166.795 52.1047 166.252 46.3922 171.291C40.6797 176.331 40.1359 185.047 45.175 190.759C55.8641 202.873 71.2281 209.962 87.7109 209.962Z" fill="black"/>
</svg>
