<svg width="580" height="800" viewBox="0 0 580 800" fill="none" xmlns="http://www.w3.org/2000/svg">
<path d="M552.069 0H27.9313C12.6906 0 0.345337 12.3453 0.345337 27.5859V772.414C0.345337 787.655 12.6906 800 27.9313 800H552.069C567.309 800 579.655 787.655 579.655 772.414V27.5859C579.655 12.3453 567.311 0 552.069 0Z" fill="#E6EEF4"/>
<path d="M331.38 579.311C331.38 613.545 340.814 647.78 344.083 658.58C344.62 660.359 343.269 662.069 341.42 662.069H238.566C236.717 662.069 235.38 660.358 235.903 658.592C239.144 647.737 248.62 613.13 248.62 579.309C234.992 589.186 219.241 594.275 201.875 594.275C151.447 594.275 107.695 551.93 110.855 500.869C112.62 472.152 130.909 447.517 155.269 432.234C179.723 416.883 202.4 415.655 222.675 420.58C209.709 405.228 201.875 385.42 201.875 363.766C201.875 309.337 251.212 266.428 307.598 277.337C342.895 284.152 370.936 313.158 376.867 348.606C381.473 376.109 373.267 401.709 357.336 420.578C377.75 415.627 400.605 416.909 425.253 432.55C449.502 447.944 467.722 472.522 469.391 501.184C472.342 552.108 428.453 594.273 378.136 594.273C361.006 594.277 344.759 588.98 331.38 579.311Z" fill="black"/>
<path d="M96.8969 220.689C127.37 220.689 152.069 195.989 152.069 165.517C152.069 135.045 127.369 110.345 96.8969 110.345C66.425 110.345 41.725 135.045 41.725 165.517C41.725 195.989 66.4234 220.689 96.8969 220.689ZM96.8969 137.931C112.134 137.931 124.483 150.28 124.483 165.517C124.483 180.755 112.134 193.103 96.8969 193.103C81.6594 193.103 69.3109 180.755 69.3109 165.517C69.3109 150.28 81.6594 137.931 96.8969 137.931Z" fill="black"/>
<path d="M138.277 68.9656C145.894 68.9656 152.07 62.7906 152.07 55.1719C152.07 47.5531 145.895 41.3781 138.277 41.3781C82.0234 41.3781 41.725 92.5406 41.725 165.516C41.725 173.133 47.9 179.309 55.5187 179.309C63.1359 179.309 69.3125 173.134 69.3125 165.516C69.3109 106.528 98.8969 68.9656 138.277 68.9656Z" fill="black"/>
</svg>
