<svg width="580" height="800" viewBox="0 0 580 800" fill="none" xmlns="http://www.w3.org/2000/svg">
<path d="M552.069 0H27.9312C12.6905 0 0.345215 12.3453 0.345215 27.5859V772.414C0.345215 787.655 12.6905 800 27.9312 800H552.069C567.309 800 579.655 787.655 579.655 772.414V27.5859C579.655 12.3453 567.311 0 552.069 0Z" fill="#E6EEF4"/>
<path d="M290 275.862L124.483 482.759L290 689.655L455.517 482.759L290 275.862Z" fill="#D71E00"/>
<path d="M96.8967 220.689C127.37 220.689 152.069 195.989 152.069 165.517C152.069 135.045 127.369 110.345 96.8967 110.345C66.4249 110.345 41.7249 135.045 41.7249 165.517C41.7249 195.989 66.4233 220.689 96.8967 220.689ZM96.8967 137.931C112.134 137.931 124.483 150.28 124.483 165.517C124.483 180.755 112.134 193.103 96.8967 193.103C81.6592 193.103 69.3108 180.755 69.3108 165.517C69.3108 150.28 81.6592 137.931 96.8967 137.931Z" fill="#D71E00"/>
<path d="M138.276 68.9656C145.894 68.9656 152.07 62.7906 152.07 55.1719C152.07 47.5531 145.895 41.3781 138.276 41.3781C82.0233 41.3781 41.7249 92.5406 41.7249 165.516C41.7249 173.133 47.8999 179.309 55.5186 179.309C63.1358 179.309 69.3124 173.134 69.3124 165.516C69.3108 106.528 98.8967 68.9656 138.276 68.9656Z" fill="#D71E00"/>
</svg>
