<svg width="580" height="800" viewBox="0 0 580 800" fill="none" xmlns="http://www.w3.org/2000/svg">
<path d="M552.069 0H27.9312C12.6905 0 0.345215 12.3453 0.345215 27.5859V772.414C0.345215 787.655 12.6905 800 27.9312 800H552.069C567.309 800 579.655 787.655 579.655 772.414V27.5859C579.655 12.3453 567.311 0 552.069 0Z" fill="#E6EEF4"/>
<path d="M290 372.414C304.855 334.58 336.289 303.448 375.751 303.448C408.965 303.448 438.565 319.063 458.511 344.828C483.531 377.159 501.214 449.131 446.456 503.891C418.676 531.669 290 662.069 290 662.069C290 662.069 161.323 531.669 133.545 503.889C78.7858 449.13 96.4686 377.158 121.49 344.827C141.436 319.061 171.036 303.447 204.25 303.447C243.711 303.448 275.145 334.58 290 372.414Z" fill="#D71E00"/>
<path d="M138.277 68.9656C145.894 68.9656 152.07 62.7906 152.07 55.1719C152.07 47.5531 145.895 41.3781 138.277 41.3781H55.5171C47.9 41.3781 41.7234 47.5531 41.7234 55.1719C41.7234 62.7906 47.8984 68.9656 55.5171 68.9656H138.277Z" fill="#D71E00"/>
<path d="M69.3109 55.1719C69.3109 47.5547 63.1359 41.3781 55.5171 41.3781C47.9 41.3781 41.7234 47.5531 41.7234 55.1719V68.9656C41.7234 76.5828 47.8984 82.7594 55.5171 82.7594C63.1343 82.7594 69.3109 76.5844 69.3109 68.9656V55.1719Z" fill="#D71E00"/>
<path d="M69.5015 190.816C68.2374 198.328 73.3031 205.442 80.8156 206.706C88.3281 207.97 95.4421 202.905 96.7062 195.392C106.309 138.309 117.181 111.695 149.755 62.8219C153.98 56.4828 152.266 47.9187 145.926 43.6953C139.587 39.4719 131.023 41.1844 126.8 47.5234C92.1218 99.5531 79.7671 129.797 69.5015 190.816Z" fill="#D71E00"/>
</svg>
