<svg width="580" height="800" viewBox="0 0 580 800" fill="none" xmlns="http://www.w3.org/2000/svg">
<path d="M552.069 0H27.9312C12.6905 0 0.345215 12.3453 0.345215 27.5859V772.414C0.345215 787.655 12.6905 800 27.9312 800H552.069C567.309 800 579.655 787.655 579.655 772.414V27.5859C579.655 12.3453 567.311 0 552.069 0Z" fill="#E6EEF4"/>
<path d="M331.38 579.311C331.38 613.545 340.814 647.78 344.083 658.58C344.62 660.359 343.269 662.069 341.42 662.069H238.566C236.717 662.069 235.38 660.358 235.903 658.592C239.144 647.737 248.62 613.13 248.62 579.309C234.98 589.186 219.241 594.275 201.875 594.275C151.447 594.275 107.695 551.93 110.855 500.869C112.62 472.152 130.909 447.517 155.269 432.234C179.724 416.883 202.4 415.655 222.675 420.58C209.709 405.228 201.875 385.42 201.875 363.766C201.875 309.337 251.213 266.428 307.599 277.337C342.895 284.152 370.936 313.158 376.867 348.606C381.474 376.109 373.267 401.709 357.336 420.578C377.75 415.627 400.605 416.909 425.253 432.55C449.502 447.944 467.722 472.522 469.391 501.184C472.342 552.108 428.453 594.273 378.136 594.273C361.006 594.277 344.759 588.98 331.38 579.311Z" fill="black"/>
<path d="M138.277 68.9656C145.894 68.9656 152.07 62.7906 152.07 55.1719C152.07 47.5531 145.895 41.3781 138.277 41.3781H55.5171C47.9 41.3781 41.7234 47.5531 41.7234 55.1719C41.7234 62.7906 47.8984 68.9656 55.5171 68.9656H138.277Z" fill="black"/>
<path d="M69.3109 55.1719C69.3109 47.5547 63.1359 41.3781 55.5171 41.3781C47.9 41.3781 41.7234 47.5531 41.7234 55.1719V68.9656C41.7234 76.5828 47.8984 82.7594 55.5171 82.7594C63.1343 82.7594 69.3109 76.5844 69.3109 68.9656V55.1719Z" fill="black"/>
<path d="M69.5015 190.816C68.2374 198.328 73.3031 205.442 80.8156 206.706C88.3281 207.97 95.4421 202.905 96.7062 195.392C106.309 138.309 117.181 111.695 149.755 62.8219C153.98 56.4828 152.266 47.9187 145.926 43.6953C139.587 39.4719 131.023 41.1844 126.8 47.5234C92.1218 99.5531 79.7671 129.797 69.5015 190.816Z" fill="black"/>
</svg>
