<svg width="580" height="800" viewBox="0 0 580 800" fill="none" xmlns="http://www.w3.org/2000/svg">
<path d="M552.069 0H27.9313C12.6906 0 0.345337 12.3453 0.345337 27.5859V772.414C0.345337 787.655 12.6906 800 27.9313 800H552.069C567.309 800 579.655 787.655 579.655 772.414V27.5859C579.655 12.3453 567.311 0 552.069 0Z" fill="#E6EEF4"/>
<path d="M290 275.862L124.483 482.759L290 689.655L455.517 482.759L290 275.862Z" fill="#D71E00"/>
<path d="M138.277 68.9656C145.894 68.9656 152.07 62.7906 152.07 55.1719C152.07 47.5531 145.895 41.3781 138.277 41.3781H55.5173C47.9001 41.3781 41.7235 47.5531 41.7235 55.1719C41.7235 62.7906 47.8985 68.9656 55.5173 68.9656H138.277Z" fill="#D71E00"/>
<path d="M69.311 55.1719C69.311 47.5547 63.136 41.3781 55.5173 41.3781C47.9001 41.3781 41.7235 47.5531 41.7235 55.1719V68.9656C41.7235 76.5828 47.8985 82.7594 55.5173 82.7594C63.1345 82.7594 69.311 76.5844 69.311 68.9656V55.1719Z" fill="#D71E00"/>
<path d="M69.5016 190.816C68.2375 198.328 73.3032 205.442 80.8157 206.706C88.3282 207.97 95.4423 202.905 96.7063 195.392C106.309 138.309 117.181 111.695 149.755 62.8219C153.98 56.4828 152.266 47.9187 145.927 43.6953C139.588 39.4719 131.023 41.1844 126.8 47.5234C92.1219 99.5531 79.7672 129.797 69.5016 190.816Z" fill="#D71E00"/>
</svg>
