<svg width="580" height="800" viewBox="0 0 580 800" fill="none" xmlns="http://www.w3.org/2000/svg">
<path d="M552.069 0H27.9313C12.6906 0 0.345337 12.3453 0.345337 27.5859V772.414C0.345337 787.655 12.6906 800 27.9313 800H552.069C567.309 800 579.655 787.655 579.655 772.414V27.5859C579.655 12.3453 567.311 0 552.069 0Z" fill="#E6EEF4"/>
<path d="M331.38 565.517C331.38 565.517 400.634 634.772 455.517 551.723C484.083 508.495 464.717 466.386 434.263 437.283L303.159 308.166C295.78 301.877 284.442 301.877 277.048 308.166L144.042 437.283C117.877 464.663 95.5875 508.386 124.483 551.723C179.655 634.483 248.62 565.517 248.62 565.517C248.62 600.869 238.552 646.303 235.614 658.772C235.214 660.509 236.552 662.069 238.331 662.069H341.683C343.463 662.069 344.786 660.511 344.386 658.786C341.463 646.277 331.38 600.648 331.38 565.517Z" fill="black"/>
<path d="M96.8969 41.3797C66.4235 41.3797 41.725 66.0797 41.725 96.5516C41.725 127.023 66.425 151.723 96.8969 151.723C127.369 151.723 152.069 127.023 152.069 96.5516C152.069 66.0797 127.369 41.3797 96.8969 41.3797ZM96.8969 124.138C81.6594 124.138 69.311 111.789 69.311 96.5516C69.311 81.3141 81.6594 68.9656 96.8969 68.9656C112.134 68.9656 124.483 81.3141 124.483 96.5516C124.483 111.789 112.134 124.138 96.8969 124.138Z" fill="black"/>
<path d="M96.8969 124.138C66.4235 124.138 41.725 148.838 41.725 179.309C41.725 209.781 66.425 234.481 96.8969 234.481C127.369 234.481 152.069 209.781 152.069 179.309C152.069 148.838 127.369 124.138 96.8969 124.138ZM96.8969 206.897C81.6594 206.897 69.311 194.548 69.311 179.311C69.311 164.073 81.6594 151.725 96.8969 151.725C112.134 151.725 124.483 164.073 124.483 179.311C124.483 194.548 112.134 206.897 96.8969 206.897Z" fill="black"/>
</svg>
