<svg width="580" height="800" viewBox="0 0 580 800" fill="none" xmlns="http://www.w3.org/2000/svg">
<path d="M552.069 0H27.9312C12.6906 0 0.345306 12.3453 0.345306 27.5859V772.414C0.345306 787.655 12.6906 800 27.9312 800H552.069C567.309 800 579.655 787.655 579.655 772.414V27.5859C579.655 12.3453 567.311 0 552.069 0Z" fill="#E6EEF4"/>
<path d="M290 372.414C304.855 334.58 336.289 303.448 375.752 303.448C408.966 303.448 438.566 319.063 458.511 344.828C483.531 377.159 501.214 449.131 446.456 503.891C418.677 531.669 290 662.069 290 662.069C290 662.069 161.323 531.669 133.545 503.889C78.7859 449.13 96.4687 377.158 121.491 344.827C141.436 319.061 171.036 303.447 204.25 303.447C243.711 303.448 275.145 334.58 290 372.414Z" fill="#D71E00"/>
<path d="M96.8969 41.3797C66.4234 41.3797 41.725 66.0797 41.725 96.5516C41.725 127.023 66.425 151.723 96.8969 151.723C127.369 151.723 152.069 127.023 152.069 96.5516C152.069 66.0797 127.369 41.3797 96.8969 41.3797ZM96.8969 124.138C81.6594 124.138 69.3109 111.789 69.3109 96.5516C69.3109 81.3141 81.6594 68.9656 96.8969 68.9656C112.134 68.9656 124.483 81.3141 124.483 96.5516C124.483 111.789 112.134 124.138 96.8969 124.138Z" fill="#D71E00"/>
<path d="M96.8969 124.138C66.4234 124.138 41.725 148.838 41.725 179.309C41.725 209.781 66.425 234.481 96.8969 234.481C127.369 234.481 152.069 209.781 152.069 179.309C152.069 148.838 127.369 124.138 96.8969 124.138ZM96.8969 206.897C81.6594 206.897 69.3109 194.548 69.3109 179.311C69.3109 164.073 81.6594 151.725 96.8969 151.725C112.134 151.725 124.483 164.073 124.483 179.311C124.483 194.548 112.134 206.897 96.8969 206.897Z" fill="#D71E00"/>
</svg>
