<svg width="580" height="800" viewBox="0 0 580 800" fill="none" xmlns="http://www.w3.org/2000/svg">
<path d="M552.069 0H27.9313C12.6906 0 0.345337 12.3453 0.345337 27.5859V772.414C0.345337 787.655 12.6906 800 27.9313 800H552.069C567.309 800 579.655 787.655 579.655 772.414V27.5859C579.655 12.3453 567.311 0 552.069 0Z" fill="#E6EEF4"/>
<path d="M331.378 579.311C331.378 613.545 340.826 647.78 344.081 658.58C344.619 660.359 343.267 662.069 341.419 662.069H238.564C236.716 662.069 235.378 660.358 235.902 658.592C239.142 647.738 248.619 613.13 248.619 579.309C234.991 589.186 219.239 594.275 201.873 594.275C151.445 594.275 107.694 551.93 110.853 500.869C112.619 472.152 130.908 447.517 155.267 432.234C179.722 416.883 202.398 415.655 222.673 420.58C209.708 405.228 201.873 385.42 201.873 363.766C201.873 309.338 251.211 266.428 307.597 277.338C342.894 284.152 370.948 313.158 376.866 348.606C381.472 376.109 373.266 401.709 357.334 420.578C377.748 415.627 400.603 416.909 425.251 432.55C449.5 447.944 467.72 472.522 469.389 501.184C472.341 552.108 428.451 594.273 378.134 594.273C361.006 594.277 344.758 588.98 331.378 579.311Z" fill="black"/>
<path d="M96.8969 41.3797C66.4234 41.3797 41.725 66.0797 41.725 96.5516C41.725 127.023 66.425 151.723 96.8969 151.723C127.369 151.723 152.069 127.023 152.069 96.5516C152.069 66.0797 127.369 41.3797 96.8969 41.3797ZM96.8969 124.138C81.6594 124.138 69.3109 111.789 69.3109 96.5516C69.3109 81.3141 81.6594 68.9656 96.8969 68.9656C112.134 68.9656 124.483 81.3141 124.483 96.5516C124.483 111.789 112.134 124.138 96.8969 124.138Z" fill="black"/>
<path d="M96.8969 124.138C66.4234 124.138 41.725 148.838 41.725 179.309C41.725 209.781 66.425 234.481 96.8969 234.481C127.369 234.481 152.069 209.781 152.069 179.309C152.069 148.838 127.369 124.138 96.8969 124.138ZM96.8969 206.897C81.6594 206.897 69.3109 194.548 69.3109 179.311C69.3109 164.073 81.6594 151.725 96.8969 151.725C112.134 151.725 124.483 164.073 124.483 179.311C124.483 194.548 112.134 206.897 96.8969 206.897Z" fill="black"/>
</svg>
