<svg width="580" height="800" viewBox="0 0 580 800" fill="none" xmlns="http://www.w3.org/2000/svg">
<path d="M552.069 0H27.9312C12.6905 0 0.345215 12.3453 0.345215 27.5859V772.414C0.345215 787.655 12.6905 800 27.9312 800H552.069C567.309 800 579.655 787.655 579.655 772.414V27.5859C579.655 12.3453 567.311 0 552.069 0Z" fill="#E6EEF4"/>
<path d="M290 275.862L124.483 482.759L290 689.655L455.517 482.759L290 275.862Z" fill="#D71E00"/>
<path d="M96.8967 41.3797C66.4233 41.3797 41.7249 66.0797 41.7249 96.5516C41.7249 127.023 66.4249 151.723 96.8967 151.723C127.369 151.723 152.069 127.023 152.069 96.5516C152.069 66.0797 127.369 41.3797 96.8967 41.3797ZM96.8967 124.138C81.6592 124.138 69.3108 111.789 69.3108 96.5516C69.3108 81.3141 81.6592 68.9656 96.8967 68.9656C112.134 68.9656 124.483 81.3141 124.483 96.5516C124.483 111.789 112.134 124.138 96.8967 124.138Z" fill="#D71E00"/>
<path d="M96.8967 124.138C66.4233 124.138 41.7249 148.838 41.7249 179.309C41.7249 209.781 66.4249 234.481 96.8967 234.481C127.369 234.481 152.069 209.781 152.069 179.309C152.069 148.838 127.369 124.138 96.8967 124.138ZM96.8967 206.897C81.6592 206.897 69.3108 194.548 69.3108 179.311C69.3108 164.073 81.6592 151.725 96.8967 151.725C112.134 151.725 124.483 164.073 124.483 179.311C124.483 194.548 112.134 206.897 96.8967 206.897Z" fill="#D71E00"/>
</svg>
