<svg width="580" height="800" viewBox="0 0 580 800" fill="none" xmlns="http://www.w3.org/2000/svg">
<path d="M552.069 0H27.9312C12.6905 0 0.345215 12.3453 0.345215 27.5859V772.414C0.345215 787.655 12.6905 800 27.9312 800H552.069C567.309 800 579.655 787.655 579.655 772.414V27.5859C579.655 12.3453 567.311 0 552.069 0Z" fill="#E6EEF4"/>
<path d="M331.38 565.517C331.38 565.517 400.634 634.772 455.517 551.723C484.083 508.495 464.717 466.386 434.262 437.283L303.159 308.166C295.78 301.877 284.442 301.877 277.048 308.166L144.042 437.283C117.876 464.663 95.5874 508.386 124.483 551.723C179.655 634.483 248.62 565.517 248.62 565.517C248.62 600.869 238.551 646.303 235.614 658.772C235.214 660.509 236.551 662.069 238.331 662.069H341.683C343.462 662.069 344.786 660.511 344.386 658.786C341.462 646.277 331.38 600.648 331.38 565.517Z" fill="black"/>
<path d="M96.9013 234.481C127.278 234.481 152.073 209.686 152.073 179.309V96.55C152.073 88.9328 145.898 82.7563 138.279 82.7563C130.662 82.7563 124.486 88.9313 124.486 96.55V179.309C124.486 194.45 112.04 206.895 96.8997 206.895C85.206 206.895 74.7935 199.408 70.8951 188.502C68.331 181.328 60.4372 177.592 53.2638 180.156C46.0904 182.72 42.3544 190.614 44.9185 197.788C52.7076 219.57 73.4451 234.481 96.9013 234.481Z" fill="black"/>
<path d="M96.8967 41.3797C66.4233 41.3797 41.7249 66.0797 41.7249 96.5516C41.7249 127.023 66.4249 151.723 96.8967 151.723C127.369 151.723 152.069 127.023 152.069 96.5516C152.069 66.0797 127.369 41.3797 96.8967 41.3797ZM96.8967 124.138C81.6592 124.138 69.3108 111.789 69.3108 96.5516C69.3108 81.3141 81.6592 68.9656 96.8967 68.9656C112.134 68.9656 124.483 81.3141 124.483 96.5516C124.483 111.789 112.134 124.138 96.8967 124.138Z" fill="black"/>
</svg>
