<svg width="580" height="800" viewBox="0 0 580 800" fill="none" xmlns="http://www.w3.org/2000/svg">
<path d="M552.069 0H27.9312C12.6905 0 0.345215 12.3453 0.345215 27.5859V772.414C0.345215 787.655 12.6905 800 27.9312 800H552.069C567.309 800 579.655 787.655 579.655 772.414V27.5859C579.655 12.3453 567.311 0 552.069 0Z" fill="#E6EEF4"/>
<path d="M331.38 579.311C331.38 613.545 340.814 647.78 344.083 658.58C344.62 660.359 343.269 662.069 341.42 662.069H238.566C236.717 662.069 235.38 660.358 235.903 658.592C239.144 647.737 248.62 613.13 248.62 579.309C234.992 589.186 219.241 594.275 201.875 594.275C151.447 594.275 107.695 551.93 110.855 500.869C112.62 472.151 130.909 447.517 155.269 432.234C179.724 416.883 202.4 415.655 222.675 420.58C209.709 405.228 201.875 385.42 201.875 363.766C201.875 309.337 251.213 266.428 307.599 277.337C342.895 284.151 370.936 313.158 376.867 348.606C381.474 376.109 373.267 401.709 357.336 420.578C377.75 415.626 400.605 416.909 425.253 432.55C449.502 447.944 467.722 472.522 469.391 501.184C472.342 552.108 428.453 594.273 378.136 594.273C361.006 594.276 344.759 588.98 331.38 579.311Z" fill="black"/>
<path d="M96.9018 234.481C127.278 234.481 152.074 209.686 152.074 179.309V96.55C152.074 88.9328 145.899 82.7562 138.28 82.7562C130.663 82.7562 124.486 88.9312 124.486 96.55V179.309C124.486 194.45 112.041 206.895 96.9002 206.895C85.2065 206.895 74.794 199.408 70.8956 188.502C68.3315 181.328 60.4377 177.592 53.2643 180.156C46.0909 182.72 42.3549 190.614 44.919 197.787C52.7081 219.57 73.4456 234.481 96.9018 234.481Z" fill="black"/>
<path d="M96.897 41.3796C66.4235 41.3796 41.7251 66.0796 41.7251 96.5515C41.7251 127.023 66.4251 151.723 96.897 151.723C127.369 151.723 152.069 127.023 152.069 96.5515C152.069 66.0796 127.369 41.3796 96.897 41.3796ZM96.897 124.137C81.6595 124.137 69.311 111.789 69.311 96.5515C69.311 81.314 81.6595 68.9656 96.897 68.9656C112.134 68.9656 124.483 81.314 124.483 96.5515C124.483 111.789 112.134 124.137 96.897 124.137Z" fill="black"/>
</svg>
