<svg width="580" height="800" viewBox="0 0 580 800" fill="none" xmlns="http://www.w3.org/2000/svg">
<path d="M552.069 0H27.9312C12.6905 0 0.345215 12.3453 0.345215 27.5859V772.414C0.345215 787.655 12.6905 800 27.9312 800H552.069C567.309 800 579.655 787.655 579.655 772.414V27.5859C579.655 12.3453 567.311 0 552.069 0Z" fill="#E6EEF4"/>
<path d="M290 275.862L124.483 482.759L290 689.655L455.517 482.759L290 275.862Z" fill="#D71E00"/>
<path d="M96.9013 234.481C127.278 234.481 152.073 209.686 152.073 179.309V96.55C152.073 88.9328 145.898 82.7562 138.279 82.7562C130.662 82.7562 124.486 88.9312 124.486 96.55V179.309C124.486 194.45 112.04 206.895 96.8997 206.895C85.206 206.895 74.7935 199.408 70.8951 188.502C68.331 181.328 60.4372 177.592 53.2638 180.156C46.0904 182.72 42.3544 190.614 44.9185 197.787C52.7076 219.57 73.4451 234.481 96.9013 234.481Z" fill="#D71E00"/>
<path d="M96.8967 41.3796C66.4233 41.3796 41.7249 66.0796 41.7249 96.5515C41.7249 127.023 66.4249 151.723 96.8967 151.723C127.369 151.723 152.069 127.023 152.069 96.5515C152.069 66.0796 127.369 41.3796 96.8967 41.3796ZM96.8967 124.137C81.6592 124.137 69.3108 111.789 69.3108 96.5515C69.3108 81.314 81.6592 68.9656 96.8967 68.9656C112.134 68.9656 124.483 81.314 124.483 96.5515C124.483 111.789 112.134 124.137 96.8967 124.137Z" fill="#D71E00"/>
</svg>
