<svg width="580" height="800" viewBox="0 0 580 800" fill="none" xmlns="http://www.w3.org/2000/svg">
<path d="M552.069 0H27.9312C12.6905 0 0.345215 12.3453 0.345215 27.5859V772.414C0.345215 787.655 12.6905 800 27.9312 800H552.069C567.309 800 579.655 787.655 579.655 772.414V27.5859C579.655 12.3453 567.311 0 552.069 0Z" fill="#E6EEF4"/>
<path d="M331.379 565.517C331.379 565.517 400.634 634.772 455.517 551.724C484.083 508.495 464.717 466.386 434.262 437.283L303.159 308.166C295.779 301.877 284.442 301.877 277.048 308.166L144.042 437.283C117.876 464.663 95.5872 508.386 124.482 551.724C179.654 634.483 248.62 565.517 248.62 565.517C248.62 600.869 238.551 646.303 235.614 658.772C235.214 660.51 236.551 662.069 238.331 662.069H341.682C343.462 662.069 344.786 660.511 344.386 658.786C341.462 646.277 331.379 600.649 331.379 565.517Z" fill="black"/>
<path d="M96.8967 220.689C127.273 220.689 152.069 195.894 152.069 165.517V55.1719C152.069 47.5547 145.894 41.3782 138.275 41.3782C130.656 41.3782 124.481 47.5532 124.481 55.1719V165.517C124.481 180.658 112.036 193.103 96.8951 193.103C81.7545 193.103 69.3092 180.658 69.3092 165.517C69.3092 157.9 63.1342 151.723 55.5154 151.723C47.8982 151.723 41.7217 157.898 41.7217 165.517C41.7232 195.894 66.5201 220.689 96.8967 220.689Z" fill="black"/>
<path d="M165.862 68.9657C173.48 68.9657 179.656 62.7907 179.656 55.1719C179.656 47.5532 173.481 41.3782 165.862 41.3782H110.69C103.073 41.3782 96.8967 47.5532 96.8967 55.1719C96.8967 62.7907 103.072 68.9657 110.69 68.9657H165.862Z" fill="black"/>
</svg>
