<svg width="580" height="800" viewBox="0 0 580 800" fill="none" xmlns="http://www.w3.org/2000/svg">
<path d="M552.069 0H27.9312C12.6906 0 0.345306 12.3453 0.345306 27.5859V772.414C0.345306 787.655 12.6906 800 27.9312 800H552.069C567.309 800 579.655 787.655 579.655 772.414V27.5859C579.655 12.3453 567.311 0 552.069 0Z" fill="#E6EEF4"/>
<path d="M331.38 565.517C331.38 565.517 400.634 634.772 455.517 551.724C484.083 508.495 464.717 466.386 434.263 437.283L303.159 308.166C295.78 301.877 284.442 301.877 277.048 308.166L144.042 437.283C117.877 464.663 95.5875 508.386 124.483 551.724C179.655 634.483 248.62 565.517 248.62 565.517C248.62 600.869 238.552 646.303 235.614 658.772C235.214 660.51 236.552 662.069 238.331 662.069H341.683C343.462 662.069 344.786 660.511 344.386 658.786C341.463 646.277 331.38 600.649 331.38 565.517Z" fill="black"/>
<path d="M41.7234 220.689C41.7234 228.306 47.8984 234.483 55.5172 234.483C63.1344 234.483 69.3109 228.308 69.3109 220.689V55.1719C69.3109 47.5547 63.1359 41.3782 55.5172 41.3782C47.9 41.3782 41.7234 47.5532 41.7234 55.1719V220.689Z" fill="black"/>
<path d="M148.748 64.1485C153.706 58.3642 153.036 49.6579 147.253 44.7001C141.47 39.7423 132.763 40.4126 127.805 46.1954L45.0453 142.749C40.0875 148.533 40.7578 157.239 46.5406 162.197C52.325 167.155 61.0312 166.484 65.9891 160.702L148.748 64.1485Z" fill="black"/>
<path d="M94.3281 116.12C89.9 109.922 81.2859 108.486 75.0875 112.914C68.889 117.342 67.4531 125.956 71.8812 132.155L140.847 228.706C145.275 234.905 153.889 236.341 160.087 231.912C166.286 227.484 167.722 218.87 163.294 212.672L94.3281 116.12Z" fill="black"/>
</svg>
