<svg width="580" height="800" viewBox="0 0 580 800" fill="none" xmlns="http://www.w3.org/2000/svg">
<path d="M552.069 0H27.9313C12.6906 0 0.345337 12.3453 0.345337 27.5859V772.414C0.345337 787.655 12.6906 800 27.9313 800H552.069C567.309 800 579.655 787.655 579.655 772.414V27.5859C579.655 12.3453 567.311 0 552.069 0Z" fill="#E6EEF4"/>
<path d="M290 372.414C304.855 334.58 336.289 303.449 375.752 303.449C408.966 303.449 438.566 319.063 458.511 344.828C483.531 377.16 501.214 449.131 446.456 503.891C418.677 531.669 290 662.069 290 662.069C290 662.069 161.324 531.669 133.545 503.889C78.786 449.13 96.4689 377.158 121.491 344.827C141.436 319.061 171.036 303.447 204.25 303.447C243.711 303.449 275.145 334.58 290 372.414Z" fill="#D71E00"/>
<path d="M41.7235 220.689C41.7235 228.306 47.8985 234.483 55.5173 234.483C63.1345 234.483 69.311 228.308 69.311 220.689V55.1719C69.311 47.5547 63.136 41.3782 55.5173 41.3782C47.9001 41.3782 41.7235 47.5532 41.7235 55.1719V220.689Z" fill="#D71E00"/>
<path d="M148.749 64.1485C153.706 58.3642 153.036 49.6579 147.253 44.7001C141.47 39.7423 132.763 40.4126 127.805 46.1954L45.0454 142.749C40.0876 148.533 40.7579 157.239 46.5407 162.197C52.3251 167.155 61.0314 166.484 65.9892 160.702L148.749 64.1485Z" fill="#D71E00"/>
<path d="M94.3282 116.12C89.9001 109.922 81.286 108.486 75.0876 112.914C68.8891 117.342 67.4532 125.956 71.8813 132.155L140.847 228.706C145.275 234.905 153.889 236.341 160.088 231.912C166.286 227.484 167.722 218.87 163.294 212.672L94.3282 116.12Z" fill="#D71E00"/>
</svg>
