<svg width="580" height="800" viewBox="0 0 580 800" fill="none" xmlns="http://www.w3.org/2000/svg">
<path d="M552.069 0H27.9312C12.6905 0 0.345215 12.3453 0.345215 27.5859V772.414C0.345215 787.655 12.6905 800 27.9312 800H552.069C567.309 800 579.655 787.655 579.655 772.414V27.5859C579.655 12.3453 567.311 0 552.069 0Z" fill="#E6EEF4"/>
<path d="M290 275.863L124.483 482.759L290 689.655L455.517 482.759L290 275.863Z" fill="#D71E00"/>
<path d="M41.7234 220.689C41.7234 228.306 47.8984 234.483 55.5171 234.483C63.1343 234.483 69.3109 228.308 69.3109 220.689V55.1719C69.3109 47.5547 63.1359 41.3782 55.5171 41.3782C47.9 41.3782 41.7234 47.5532 41.7234 55.1719V220.689Z" fill="#D71E00"/>
<path d="M148.748 64.1485C153.706 58.3642 153.036 49.6579 147.253 44.7001C141.47 39.7423 132.763 40.4126 127.805 46.1954L45.0453 142.749C40.0875 148.533 40.7578 157.239 46.5406 162.197C52.325 167.155 61.0313 166.484 65.9891 160.702L148.748 64.1485Z" fill="#D71E00"/>
<path d="M94.328 116.12C89.8998 109.922 81.2858 108.486 75.0873 112.914C68.8889 117.342 67.453 125.956 71.8811 132.155L140.847 228.706C145.275 234.905 153.889 236.341 160.087 231.912C166.286 227.484 167.722 218.87 163.294 212.672L94.328 116.12Z" fill="#D71E00"/>
</svg>
