<svg width="580" height="800" viewBox="0 0 580 800" fill="none" xmlns="http://www.w3.org/2000/svg">
<path d="M552.069 0H27.9312C12.6905 0 0.345215 12.3453 0.345215 27.5859V772.414C0.345215 787.655 12.6905 800 27.9312 800H552.069C567.309 800 579.655 787.655 579.655 772.414V27.5859C579.655 12.3453 567.311 0 552.069 0Z" fill="#E6EEF4"/>
<path d="M290 372.414C304.855 334.58 336.289 303.448 375.751 303.448C408.965 303.448 438.565 319.062 458.511 344.828C483.531 377.159 501.214 449.131 446.456 503.891C418.676 531.669 290 662.069 290 662.069C290 662.069 161.323 531.669 133.545 503.889C78.7858 449.13 96.4686 377.158 121.49 344.826C141.436 319.061 171.036 303.447 204.25 303.447C243.711 303.448 275.145 334.58 290 372.414Z" fill="#D71E00"/>
<path d="M41.7234 96.5515V179.311C41.7234 209.687 66.5187 234.483 96.8953 234.483C127.272 234.483 152.067 209.687 152.067 179.311V96.5515C152.067 66.1749 127.272 41.3796 96.8953 41.3796C66.5187 41.3796 41.7234 66.1749 41.7234 96.5515ZM124.483 96.5515V179.311C124.483 194.452 112.037 206.897 96.8968 206.897C81.7562 206.897 69.3109 194.452 69.3109 179.311V96.5515C69.3109 81.4109 81.7562 68.9656 96.8968 68.9656C112.037 68.9656 124.483 81.4109 124.483 96.5515Z" fill="#D71E00"/>
<path d="M143.794 231.723C149.887 236.294 158.533 235.059 163.105 228.964C167.675 222.87 166.441 214.225 160.345 209.653L105.173 168.273C99.0796 163.703 90.4343 164.937 85.8624 171.033C81.2921 177.126 82.5264 185.772 88.6218 190.344L143.794 231.723Z" fill="#D71E00"/>
</svg>
