<svg width="580" height="800" viewBox="0 0 580 800" fill="none" xmlns="http://www.w3.org/2000/svg">
<path d="M552.069 0H27.9313C12.6906 0 0.345337 12.3453 0.345337 27.5859V772.414C0.345337 787.655 12.6906 800 27.9313 800H552.069C567.309 800 579.655 787.655 579.655 772.414V27.5859C579.655 12.3453 567.311 0 552.069 0Z" fill="#E6EEF4"/>
<path d="M290 275.863L124.483 482.759L290 689.655L455.517 482.759L290 275.863Z" fill="#D71E00"/>
<path d="M41.7234 96.5515V179.311C41.7234 209.687 66.5188 234.483 96.8953 234.483C127.272 234.483 152.067 209.687 152.067 179.311V96.5515C152.067 66.1749 127.272 41.3796 96.8953 41.3796C66.5188 41.3796 41.7234 66.1749 41.7234 96.5515ZM124.483 96.5515V179.311C124.483 194.452 112.038 206.897 96.8969 206.897C81.7563 206.897 69.311 194.452 69.311 179.311V96.5515C69.311 81.4109 81.7563 68.9656 96.8969 68.9656C112.038 68.9656 124.483 81.4109 124.483 96.5515Z" fill="#D71E00"/>
<path d="M143.794 231.723C149.888 236.294 158.533 235.059 163.105 228.964C167.675 222.87 166.441 214.225 160.345 209.653L105.173 168.273C99.0797 163.703 90.4344 164.937 85.8625 171.033C81.2922 177.126 82.5266 185.772 88.6219 190.344L143.794 231.723Z" fill="#D71E00"/>
</svg>
